<svg name="LogoIcon" version="1.1" id="LogoIcon" xmlns="http://www.w3.org/2000/svg" xmlns:xlink="http://www.w3.org/1999/xlink" x="0px" y="0px"
	 viewBox="0 0 1024 1024" style="enable-background:new 0 0 1024 1024;" xml:space="preserve" stroke="currentColor" fill="currentColor">
<g>
	<path d="M502.99,751.9c-4.72-3.22-8.71-5.26-11.86-8.2c-91.69-85.61-182.32-172.38-275.25-256.62
		c-67-60.73-99.22-133.32-95.57-224.17c2.97-73.74,0.6-147.69,0.6-226.9c8.51,6.02,13.14,8.51,16.81,12.02
		c46.11,44.14,92.46,88.04,137.92,132.84c22.67,22.35,44.82,45.45,65.07,69.98c21.22,25.72,28.84,56.36,24.07,89.85
		c-3.37,23.61-6,47.32-9.37,74.22c32.48,17.37,59.85,41.44,69.48,81.15c9.37,38.63-5.41,71.32-24.39,104.94
		c26.53,24.93,52.08,49.09,77.82,73.06c7.32,6.82,15.18,13.07,24.84,21.33c28.33-26.44,55.8-51.94,83.06-77.65
		c5.63-5.31,10.47-11.45,15.15-16.62c-40.57-94.36-30.64-134.74,46.37-186.49c-2.41-24.59-4.25-50.44-7.63-76.1
		c-5.16-39.06,7.55-72.23,33-100.61c19.75-22.03,41.04-42.74,62.28-63.38c42.51-41.3,85.45-82.17,128.26-123.17
		c3.87-3.71,8.05-7.09,15.28-13.42c1.61,7.43,3.2,11.35,3.19,15.26c-0.16,84.36-0.36,168.73-0.83,253.09
		c-0.32,56.23-19.98,104.81-59.59,144.81c-32.88,33.21-65.75,66.49-99.72,98.56c-64.68,61.06-130.13,121.31-195.34,181.82
		C519.22,738.36,511.33,744.71,502.99,751.9z M163.29,134.39c0,62.84-0.89,116.35,0.25,169.83c1.12,52.78,22.56,96.98,61.28,132.95
		c40.94,38.03,81.58,76.39,122.52,114.42c6.39,5.94,13.73,10.87,20.78,16.4c33.16-52.07,18.38-96.44-37.16-113.33
		c-19.97-6.07-32.27-19.38-48.89-38.2c32.17-0.87,33.83-22.34,36.95-42.7c1.56-10.14,2.24-20.44,4.25-30.48
		c5.55-27.79-2.25-51.89-19.55-73.42C264.33,220.82,214.39,183.07,163.29,134.39z M839.8,135.54
		c-41.53,38.37-76.38,71.97-112.76,103.82c-43.27,37.89-54.41,83.54-41.36,138.47c4.78,20.15,9.86,36.42,35.01,39.99
		c-15.84,20.05-31.23,32.12-53.62,38.75c-50.06,14.83-63.69,70.49-27.31,112.25c51.07-48.56,102.75-96.37,152.83-145.81
		c31.2-30.81,45.9-69.87,47.33-113.8c0.81-25.01,2.62-50.01,2.58-75.01C842.45,204.12,840.93,174.04,839.8,135.54z"/>
	<path d="M166.57,522.67c20.07,13.87,34.38,25.2,36.15,51.46c1.15,17.07,14.67,35.55,27.26,49.14
		c27.06,29.21,57.16,55.6,85.91,83.25c29.57,28.44,58.68,57.39,88.7,85.35c12.5,11.64,20.26,23.95,17.94,41.66
		c-0.88,6.68-0.04,13.69,0.69,20.47c4.31,39.96,13.76,48.48,53.57,48.58c20.52,0.05,41.04,0.26,61.56-0.08
		c25.51-0.42,34.62-7.68,39.93-32.08c1.68-7.73,3.04-16.02,2.1-23.75c-3.39-27.91,9.79-46.75,29.42-64.85
		c51.1-47.13,101.13-95.44,150.96-143.92c22.8-22.18,44.75-44.16,44.89-80.99c0.04-11.64,18.04-23.21,29.07-36.31
		c22.45,28.06,24.33,54.23,9.87,80.19c-9.3,16.7-21.31,32.63-34.91,46.06C756.15,699.7,702.15,752.1,646.95,803.18
		c-17.22,15.94-27.2,32.25-25.62,55.91c1.96,29.25-9.77,53.11-31.03,72.86c-8.34,7.75-16.87,15.62-23.57,24.71
		c-14.29,19.36-32.74,27.03-56.22,23.49c-20.55-3.1-43.83,8.3-61.22-11.62c-28.68-32.83-70.06-58.26-67.21-109.86
		c1.31-23.78-7.74-40.15-25.25-55.95c-45.69-41.21-90.06-83.92-134.04-126.97c-19.48-19.07-38.44-39.14-54.63-60.99
		C144.91,583.42,145.41,563.09,166.57,522.67z"/>
</g>
</svg>
